Neuton-light.ufo
<glyph name="parenright" format="1">
  <advance width="585"/>
  <unicode hex="0029"/>
  <outline>
    <contour>
      <point x="66.5" y="1482" type="curve" smooth="no"/>
      <point x="112" y="1549" type="line" smooth="no"/>
      <point x="193.5" y="1479.5"/>
      <point x="528.5" y="1203.5"/>
      <point x="528.5" y="555.5" type="curve" smooth="yes"/>
      <point x="528.5" y="-80.5"/>
      <point x="181.5" y="-405"/>
      <point x="119" y="-462.5" type="curve" smooth="no"/>
      <point x="59.5" y="-407" type="line" smooth="no"/>
      <point x="114.5" y="-317"/>
      <point x="349" y="49"/>
      <point x="349" y="562" type="curve" smooth="yes"/>
      <point x="349" y="1086"/>
      <point x="172" y="1343"/>
    </contour>
  </outline>
</glyph>
<glyph name="hyphen" format="1">
  <advance width="707"/>
  <unicode hex="002d"/>
  <outline>
    <contour>
      <point x="100.5" y="504.5" type="line" smooth="no"/>
      <point x="113.5" y="603" type="line" smooth="no"/>
      <point x="616.5" y="625" type="line" smooth="no"/>
      <point x="603.5" y="526" type="line" smooth="no"/>
    </contour>
  </outline>
</glyph>
<glyph name="one" format="1">
  <advance width="1097"/>
  <unicode hex="0031"/>
  <outline>
    <contour>
      <point x="147.5" y="1.5" type="line" smooth="no"/>
      <point x="152.5" y="75.5" type="line" smooth="no"/>
      <point x="490.5" y="127" type="line" smooth="no"/>
      <point x="490.5" y="1308" type="line" smooth="no"/>
      <point x="171" y="1308" type="line" smooth="no"/>
      <point x="177.5" y="1382.5" type="line" smooth="no"/>
      <point x="654" y="1461.5" type="line" smooth="no"/>
      <point x="687" y="1461.5" type="line" smooth="no"/>
      <point x="687" y="121" type="line" smooth="no"/>
      <point x="1017.5" y="86.5" type="line" smooth="no"/>
      <point x="1006.5" y="1.5" type="line" smooth="no"/>
    </contour>
  </outline>
</glyph>
<glyph name="three" format="1">
  <advance width="1184"/>
  <unicode hex="0033"/>
  <outline>
    <contour>
      <point x="108.5" y="111" type="curve" smooth="no"/>
      <point x="164" y="435.5" type="line" smooth="no"/>
      <point x="247" y="421.5" type="line" smooth="no"/>
      <point x="258.5" y="170" type="line" smooth="no"/>
      <point x="293" y="108.5"/>
      <point x="391.5" y="45"/>
      <point x="500" y="45" type="curve" smooth="yes"/>
      <point x="687.5" y="45"/>
      <point x="815" y="166.5"/>
      <point x="815" y="360.5" type="curve" smooth="yes"/>
      <point x="815" y="549.5"/>
      <point x="637.5" y="679.5"/>
      <point x="400.5" y="685" type="curve" smooth="no"/>
      <point x="393" y="746.5" type="line" smooth="no"/>
      <point x="503.5" y="796"/>
      <point x="757" y="915"/>
      <point x="757" y="1146" type="curve" smooth="yes"/>
      <point x="757" y="1268"/>
      <point x="685" y="1403"/>
      <point x="532.5" y="1403" type="curve" smooth="yes"/>
      <point x="434.5" y="1403"/>
      <point x="368.5" y="1355"/>
      <point x="324" y="1304.5" type="curve" smooth="no"/>
      <point x="272" y="1028" type="line" smooth="no"/>
      <point x="192" y="1041" type="line" smooth="no"/>
      <point x="183.5" y="1346.5" type="line" smooth="no"/>
      <point x="244" y="1404.5"/>
      <point x="396.5" y="1493.5"/>
      <point x="596" y="1493.5" type="curve" smooth="yes"/>
      <point x="802.5" y="1493.5"/>
      <point x="963" y="1374.5"/>
      <point x="963" y="1182.5" type="curve" smooth="yes"/>
      <point x="963" y="982.5"/>
      <point x="780.5" y="848"/>
      <point x="631.5" y="793" type="curve" smooth="no"/>
      <point x="631.5" y="781" type="line" smooth="no"/>
      <point x="851.5" y="750.5"/>
      <point x="1020" y="622"/>
      <point x="1020" y="425" type="curve" smooth="yes"/>
      <point x="1020" y="156"/>
      <point x="761" y="-40.5"/>
      <point x="476.5" y="-40.5" type="curve" smooth="yes"/>
      <point x="304" y="-40.5"/>
      <point x="154" y="32"/>
    </contour>
  </outline>
</glyph>
<glyph name="four" format="1">
  <advance width="1200"/>
  <unicode hex="0034"/>
  <outline>
    <contour>
      <point x="47" y="511.5" type="line" smooth="no"/>
      <point x="807.5" y="1469" type="line" smooth="no"/>
      <point x="868.5" y="1450.5" type="line" smooth="no"/>
      <point x="860.5" y="1304"/>
      <point x="857" y="1066.5"/>
      <point x="857" y="842.5" type="curve" smooth="yes"/>
      <point x="857" y="569.5" type="line" smooth="no"/>
      <point x="1172" y="569.5" type="line" smooth="no"/>
      <point x="1152" y="441" type="line" smooth="no"/>
      <point x="857" y="441" type="line" smooth="no"/>
      <point x="857" y="109.5" type="line" smooth="no"/>
      <point x="1111" y="78.5" type="line" smooth="no"/>
      <point x="1098.5" y="0.5" type="line" smooth="no"/>
      <point x="368" y="0.5" type="line" smooth="no"/>
      <point x="376.5" y="70.5" type="line" smooth="no"/>
      <point x="681" y="117.5" type="line" smooth="no"/>
      <point x="681" y="445" type="line" smooth="no"/>
      <point x="70.5" y="445" type="line" smooth="no"/>
    </contour>
    <contour>
      <point x="229.5" y="569.5" type="line" smooth="no"/>
      <point x="676.5" y="569.5" type="line" smooth="no"/>
      <point x="676.5" y="1169.5" type="line" smooth="no"/>
    </contour>
  </outline>
</glyph>
<glyph name="at" format="1">
  <advance width="1681"/>
  <unicode hex="0040"/>
  <outline>
    <contour>
      <point x="108.5" y="405.5" type="curve" smooth="yes"/>
      <point x="108.5" y="872.5"/>
      <point x="450" y="1288.5"/>
      <point x="973.5" y="1288.5" type="curve" smooth="yes"/>
      <point x="1320" y="1288.5"/>
      <point x="1609" y="1055.5"/>
      <point x="1609" y="717.5" type="curve" smooth="yes"/>
      <point x="1609" y="383.5"/>
      <point x="1365.5" y="85.5"/>
      <point x="1027.5" y="85.5" type="curve" smooth="yes"/>
      <point x="949.5" y="85.5"/>
      <point x="936" y="152.5"/>
      <point x="940" y="231" type="curve" smooth="no"/>
      <point x="928.5" y="231" type="line" smooth="no"/>
      <point x="879.5" y="157.5"/>
      <point x="776.5" y="73.5"/>
      <point x="682.5" y="73.5" type="curve" smooth="yes"/>
      <point x="560" y="73.5"/>
      <point x="480" y="190.5"/>
      <point x="480" y="401.5" type="curve" smooth="yes"/>
      <point x="480" y="753"/>
      <point x="742" y="975"/>
      <point x="950" y="975" type="curve" smooth="yes"/>
      <point x="1015.5" y="975"/>
      <point x="1066" y="969.5"/>
      <point x="1137" y="953.5" type="curve" smooth="no"/>
      <point x="1141" y="952" type="line" smooth="no"/>
      <point x="1159.5" y="927.5" type="line" smooth="no"/>
      <point x="1108" y="474.5" type="line" smooth="yes"/>
      <point x="1101.5" y="412.5"/>
      <point x="1091.5" y="307"/>
      <point x="1091.5" y="263.5" type="curve" smooth="yes"/>
      <point x="1091.5" y="202.5"/>
      <point x="1098" y="188"/>
      <point x="1122.5" y="188" type="curve" smooth="yes"/>
      <point x="1310.5" y="188"/>
      <point x="1475" y="386.5"/>
      <point x="1475" y="672" type="curve" smooth="yes"/>
      <point x="1475" y="1000.5"/>
      <point x="1219.5" y="1198.5"/>
      <point x="928" y="1198.5" type="curve" smooth="yes"/>
      <point x="533" y="1198.5"/>
      <point x="259" y="855"/>
      <point x="259" y="437.5" type="curve" smooth="yes"/>
      <point x="259" y="63.5"/>
      <point x="495" y="-184"/>
      <point x="899" y="-184" type="curve" smooth="yes"/>
      <point x="1084" y="-184"/>
      <point x="1285" y="-87"/>
      <point x="1342.5" y="-38" type="curve" smooth="no"/>
      <point x="1378" y="-101.5" type="line" smooth="no"/>
      <point x="1269" y="-173.5"/>
      <point x="1122" y="-280.5"/>
      <point x="853.5" y="-280.5" type="curve" smooth="yes"/>
      <point x="477.5" y="-280.5"/>
      <point x="108.5" y="-68"/>
    </contour>
    <contour>
      <point x="631" y="455" type="curve" smooth="yes"/>
      <point x="631" y="269"/>
      <point x="673" y="197"/>
      <point x="735.5" y="197" type="curve" smooth="yes"/>
      <point x="801" y="197"/>
      <point x="899.5" y="257.5"/>
      <point x="942.5" y="306.5" type="curve" smooth="no"/>
      <point x="1008.5" y="867" type="line" smooth="no"/>
      <point x="980" y="874.5"/>
      <point x="921" y="881"/>
      <point x="883" y="881" type="curve" smooth="yes"/>
      <point x="734.5" y="881"/>
      <point x="631" y="678"/>
    </contour>
  </outline>
</glyph>
<glyph name="G" format="1">
  <advance width="1674"/>
  <unicode hex="0047"/>
  <outline>
    <contour>
      <point x="133" y="729" type="curve" smooth="yes"/>
      <point x="133" y="1182"/>
      <point x="465.5" y="1556.5"/>
      <point x="906.5" y="1556.5" type="curve" smooth="yes"/>
      <point x="1098" y="1556.5"/>
      <point x="1283" y="1514.5"/>
      <point x="1403.5" y="1433" type="curve" smooth="no"/>
      <point x="1369.5" y="1038" type="line" smooth="no"/>
      <point x="1288" y="1051" type="line" smooth="no"/>
      <point x="1247" y="1314.5" type="line" smooth="no"/>
      <point x="1190" y="1380"/>
      <point x="1050.5" y="1458.5"/>
      <point x="855.5" y="1458.5" type="curve" smooth="yes"/>
      <point x="560.5" y="1458.5"/>
      <point x="336" y="1215"/>
      <point x="336" y="790" type="curve" smooth="yes"/>
      <point x="336" y="428"/>
      <point x="523.5" y="75"/>
      <point x="947" y="75" type="curve" smooth="yes"/>
      <point x="1053" y="75"/>
      <point x="1150" y="103.5"/>
      <point x="1214" y="146.5" type="curve" smooth="no"/>
      <point x="1215.5" y="571.5" type="line" smooth="no"/>
      <point x="920.5" y="610.5" type="line" smooth="no"/>
      <point x="932" y="686" type="line" smooth="no"/>
      <point x="1571" y="686" type="line" smooth="no"/>
      <point x="1559.5" y="615.5" type="line" smooth="no"/>
      <point x="1400" y="576.5" type="line" smooth="no"/>
      <point x="1400" y="97.5" type="line" smooth="no"/>
      <point x="1236.5" y="0"/>
      <point x="1059" y="-31.5"/>
      <point x="812.5" y="-31.5" type="curve" smooth="yes"/>
      <point x="394" y="-31.5"/>
      <point x="133" y="281.5"/>
    </contour>
  </outline>
</glyph>
<glyph name="I" format="1">
  <advance width="832"/>
  <unicode hex="0049"/>
  <outline>
    <contour>
      <point x="105.5" y="1464" type="line" smooth="no"/>
      <point x="115.5" y="1535" type="line" smooth="no"/>
      <point x="733.5" y="1535" type="line" smooth="no"/>
      <point x="723.5" y="1464" type="line" smooth="no"/>
      <point x="510.5" y="1426" type="line" smooth="no"/>
      <point x="510.5" y="111" type="line" smooth="no"/>
      <point x="742" y="78" type="line" smooth="no"/>
      <point x="729.5" y="0" type="line" smooth="no"/>
      <point x="116" y="0" type="line" smooth="no"/>
      <point x="124" y="71" type="line" smooth="no"/>
      <point x="324.5" y="119" type="line" smooth="no"/>
      <point x="324.5" y="1423" type="line" smooth="no"/>
    </contour>
  </outline>
</glyph>
<glyph name="K" format="1">
  <advance width="1512"/>
  <unicode hex="004b"/>
  <outline>
    <contour>
      <point x="103" y="1464" type="line" smooth="no"/>
      <point x="114.5" y="1535" type="line" smooth="no"/>
      <point x="731" y="1535" type="line" smooth="no"/>
      <point x="722.5" y="1464" type="line" smooth="no"/>
      <point x="512" y="1420.5" type="line" smooth="no"/>
      <point x="512" y="117" type="line" smooth="no"/>
      <point x="743" y="78" type="line" smooth="no"/>
      <point x="730.5" y="0" type="line" smooth="no"/>
      <point x="113.5" y="0" type="line" smooth="no"/>
      <point x="123.5" y="71" type="line" smooth="no"/>
      <point x="326" y="124" type="line" smooth="no"/>
      <point x="326" y="1417.5" type="line" smooth="no"/>
    </contour>
    <contour>
      <point x="560.5" y="768" type="line" smooth="no"/>
      <point x="603.5" y="813.5"/>
      <point x="684.5" y="901.5"/>
      <point x="744.5" y="975" type="curve" smooth="yes"/>
      <point x="1101" y="1419.5" type="line" smooth="no"/>
      <point x="898.5" y="1464" type="line" smooth="no"/>
      <point x="905.5" y="1535" type="line" smooth="no"/>
      <point x="1461" y="1535" type="line" smooth="no"/>
      <point x="1451.5" y="1464" type="line" smooth="no"/>
      <point x="1248.5" y="1420.5" type="line" smooth="no"/>
      <point x="741.5" y="800.5" type="line" smooth="no"/>
      <point x="1044" y="442" type="line" smooth="yes"/>
      <point x="1225" y="227.5"/>
      <point x="1316.5" y="120"/>
      <point x="1469.5" y="84.5" type="curve" smooth="yes"/>
      <point x="1525.5" y="72" type="line" smooth="no"/>
      <point x="1512" y="2" type="line" smooth="no"/>
      <point x="1455" y="-17.5"/>
      <point x="1416.5" y="-26.5"/>
      <point x="1366" y="-26.5" type="curve" smooth="yes"/>
      <point x="1181" y="-26.5"/>
      <point x="1047" y="119"/>
      <point x="904.5" y="303" type="curve" smooth="yes"/>
      <point x="562" y="745.5" type="line" smooth="no"/>
    </contour>
  </outline>
</glyph>
<glyph name="O" format="1">
  <advance width="1643"/>
  <unicode hex="004f"/>
  <outline>
    <contour>
      <point x="137.5" y="764.5" type="curve" smooth="yes"/>
      <point x="137.5" y="1239"/>
      <point x="430.5" y="1571"/>
      <point x="900" y="1571" type="curve" smooth="yes"/>
      <point x="1334.5" y="1571"/>
      <point x="1577.5" y="1213"/>
      <point x="1577.5" y="769.5" type="curve" smooth="yes"/>
      <point x="1577.5" y="368"/>
      <point x="1320.5" y="-33"/>
      <point x="814" y="-33" type="curve" smooth="yes"/>
      <point x="405.5" y="-33"/>
      <point x="137.5" y="323.5"/>
    </contour>
    <contour>
      <point x="342.5" y="836" type="curve" smooth="yes"/>
      <point x="342.5" y="427"/>
      <point x="515.5" y="72"/>
      <point x="874" y="72" type="curve" smooth="yes"/>
      <point x="1240.5" y="72"/>
      <point x="1373.5" y="408"/>
      <point x="1373.5" y="707.5" type="curve" smooth="yes"/>
      <point x="1373.5" y="1117.5"/>
      <point x="1194" y="1476.5"/>
      <point x="840.5" y="1476.5" type="curve" smooth="yes"/>
      <point x="474.5" y="1476.5"/>
      <point x="342.5" y="1157.5"/>
    </contour>
  </outline>
</glyph>
<glyph name="P" format="1">
  <advance width="1382"/>
  <unicode hex="0050"/>
  <outline>
    <contour>
      <point x="105" y="0" type="line" smooth="no"/>
      <point x="114.5" y="71" type="line" smooth="no"/>
      <point x="315.5" y="119" type="line" smooth="no"/>
      <point x="315.5" y="1393" type="line" smooth="no"/>
      <point x="110.5" y="1424.5" type="line" smooth="no"/>
      <point x="121.5" y="1494" type="line" smooth="no"/>
      <point x="281" y="1518.5"/>
      <point x="453.5" y="1549"/>
      <point x="664.5" y="1549" type="curve" smooth="yes"/>
      <point x="987.5" y="1549"/>
      <point x="1272.5" y="1437.5"/>
      <point x="1272.5" y="1101" type="curve" smooth="yes"/>
      <point x="1272.5" y="803.5"/>
      <point x="993" y="602.5"/>
      <point x="688.5" y="602.5" type="curve" smooth="yes"/>
      <point x="656.5" y="602.5"/>
      <point x="625" y="603.5"/>
      <point x="596.5" y="605.5" type="curve" smooth="no"/>
      <point x="579" y="682.5" type="line" smooth="no"/>
      <point x="644.5" y="685" type="line" smooth="yes"/>
      <point x="941.5" y="696.5"/>
      <point x="1068.5" y="846.5"/>
      <point x="1068.5" y="1066.5" type="curve" smooth="yes"/>
      <point x="1068.5" y="1277.5"/>
      <point x="935.5" y="1471"/>
      <point x="633" y="1471" type="curve" smooth="yes"/>
      <point x="582.5" y="1471"/>
      <point x="502" y="1463.5"/>
      <point x="502" y="1463.5" type="curve" smooth="no"/>
      <point x="502" y="116.5" type="line" smooth="no"/>
      <point x="792.5" y="80" type="line" smooth="no"/>
      <point x="778.5" y="0" type="line" smooth="no"/>
    </contour>
  </outline>
</glyph>
<glyph name="T" format="1">
  <advance width="1399"/>
  <unicode hex="0054"/>
  <outline>
    <contour>
      <point x="68" y="1535" type="line" smooth="no"/>
      <point x="1390.5" y="1535" type="line" smooth="no"/>
      <point x="1348" y="1121.5" type="line" smooth="no"/>
      <point x="1258.5" y="1134.5" type="line" smooth="no"/>
      <point x="1224.5" y="1447" type="line" smooth="no"/>
      <point x="808" y="1447" type="line" smooth="no"/>
      <point x="808" y="115.5" type="line" smooth="no"/>
      <point x="1031" y="78" type="line" smooth="no"/>
      <point x="1016" y="0" type="line" smooth="no"/>
      <point x="403.5" y="0" type="line" smooth="no"/>
      <point x="411" y="71" type="line" smooth="no"/>
      <point x="623.5" y="119" type="line" smooth="no"/>
      <point x="623.5" y="1447" type="line" smooth="no"/>
      <point x="221.5" y="1447" type="line" smooth="no"/>
      <point x="167" y="1125" type="line" smooth="no"/>
      <point x="78.5" y="1138" type="line" smooth="no"/>
    </contour>
  </outline>
</glyph>
<glyph name="W" format="1">
  <advance width="2311"/>
  <unicode hex="0057"/>
  <outline>
    <contour>
      <point x="53" y="1465.5" type="line" smooth="no"/>
      <point x="63.5" y="1535" type="line" smooth="no"/>
      <point x="623.5" y="1535" type="line" smooth="no"/>
      <point x="612" y="1468" type="line" smooth="no"/>
      <point x="407" y="1426" type="line" smooth="no"/>
      <point x="733" y="277.5" type="line" smooth="no"/>
      <point x="1091" y="1478.5" type="line" smooth="no"/>
      <point x="1228" y="1497.5" type="line" smooth="no"/>
      <point x="1555.5" y="287" type="line" smooth="no"/>
      <point x="1916" y="1420" type="line" smooth="no"/>
      <point x="1689" y="1467" type="line" smooth="no"/>
      <point x="1698.5" y="1535" type="line" smooth="no"/>
      <point x="2213" y="1535" type="line" smooth="no"/>
      <point x="2203.5" y="1466" type="line" smooth="no"/>
      <point x="2055.5" y="1424" type="line" smooth="no"/>
      <point x="1587" y="-5.5" type="line" smooth="no"/>
      <point x="1451.5" y="-30.5" type="line" smooth="no"/>
      <point x="1125" y="1198" type="line" smooth="no"/>
      <point x="767" y="-5.5" type="line" smooth="no"/>
      <point x="623" y="-30" type="line" smooth="no"/>
      <point x="215" y="1422" type="line" smooth="no"/>
    </contour>
  </outline>
</glyph>
<glyph name="X" format="1">
  <advance width="1475"/>
  <unicode hex="0058"/>
  <outline>
    <contour>
      <point x="-2.5" y="0" type="line" smooth="no"/>
      <point x="8.5" y="69" type="line" smooth="no"/>
      <point x="163.5" y="114" type="line" smooth="no"/>
      <point x="646" y="764.5" type="line" smooth="no"/>
      <point x="197.5" y="1423.5" type="line" smooth="no"/>
      <point x="28" y="1467" type="line" smooth="no"/>
      <point x="38" y="1535" type="line" smooth="no"/>
      <point x="613.5" y="1535" type="line" smooth="no"/>
      <point x="604.5" y="1467" type="line" smooth="no"/>
      <point x="412" y="1420.5" type="line" smooth="no"/>
      <point x="769" y="896.5" type="line" smooth="no"/>
      <point x="1155.5" y="1425" type="line" smooth="no"/>
      <point x="945.5" y="1464.5" type="line" smooth="no"/>
      <point x="956" y="1535" type="line" smooth="no"/>
      <point x="1452" y="1535" type="line" smooth="no"/>
      <point x="1447" y="1466" type="line" smooth="no"/>
      <point x="1291" y="1429.5" type="line" smooth="no"/>
      <point x="838" y="807" type="line" smooth="no"/>
      <point x="1304" y="103.5" type="line" smooth="no"/>
      <point x="1471.5" y="71.5" type="line" smooth="no"/>
      <point x="1459.5" y="0" type="line" smooth="no"/>
      <point x="886" y="0" type="line" smooth="no"/>
      <point x="897" y="62.5" type="line" smooth="no"/>
      <point x="1096.5" y="111.5" type="line" smooth="no"/>
      <point x="716" y="678.5" type="line" smooth="no"/>
      <point x="305" y="109.5" type="line" smooth="no"/>
      <point x="509" y="77" type="line" smooth="no"/>
      <point x="495" y="0" type="line" smooth="no"/>
    </contour>
  </outline>
</glyph>
<glyph name="asciicircum" format="1">
  <advance width="905"/>
  <unicode hex="005e"/>
  <outline>
    <contour>
      <point x="61" y="1019.5" type="line" smooth="no"/>
      <point x="417" y="1527" type="line" smooth="no"/>
      <point x="485.5" y="1543" type="line" smooth="no"/>
      <point x="849" y="1016.5" type="line" smooth="no"/>
      <point x="790" y="977" type="line" smooth="no"/>
      <point x="447.5" y="1355" type="line" smooth="no"/>
      <point x="436" y="1355" type="line" smooth="no"/>
      <point x="112.5" y="983.5" type="line" smooth="no"/>
    </contour>
  </outline>
</glyph>
<glyph name="c" format="1">
  <advance width="961"/>
  <unicode hex="0063"/>
  <outline>
    <contour>
      <point x="112.5" y="500" type="curve" smooth="yes"/>
      <point x="112.5" y="866.5"/>
      <point x="338" y="1095"/>
      <point x="606" y="1095" type="curve" smooth="yes"/>
      <point x="813" y="1095"/>
      <point x="890.5" y="993.5"/>
      <point x="890.5" y="896" type="curve" smooth="yes"/>
      <point x="890.5" y="831"/>
      <point x="854.5" y="787.5"/>
      <point x="773" y="774" type="curve" smooth="no"/>
      <point x="727.5" y="899.5"/>
      <point x="665.5" y="999"/>
      <point x="547" y="999" type="curve" smooth="yes"/>
      <point x="400.5" y="999"/>
      <point x="285.5" y="853.5"/>
      <point x="285.5" y="592.5" type="curve" smooth="yes"/>
      <point x="285.5" y="305.5"/>
      <point x="418" y="85"/>
      <point x="645" y="85" type="curve" smooth="yes"/>
      <point x="767" y="85"/>
      <point x="856" y="134.5"/>
      <point x="915" y="182.5" type="curve" smooth="no"/>
      <point x="941" y="126" type="line" smooth="no"/>
      <point x="878.5" y="40.5"/>
      <point x="723.5" y="-36.5"/>
      <point x="564" y="-36.5" type="curve" smooth="yes"/>
      <point x="279" y="-36.5"/>
      <point x="112.5" y="204.5"/>
    </contour>
  </outline>
</glyph>
<glyph name="d" format="1">
  <advance width="1230"/>
  <unicode hex="0064"/>
  <outline>
    <contour>
      <point x="113.5" y="484.5" type="curve" smooth="yes"/>
      <point x="113.5" y="853.5"/>
      <point x="378.5" y="1096.5"/>
      <point x="639.5" y="1096.5" type="curve" smooth="yes"/>
      <point x="721" y="1096.5"/>
      <point x="825" y="1067.5"/>
      <point x="866" y="1037" type="curve" smooth="no"/>
      <point x="876" y="1037" type="line" smooth="no"/>
      <point x="859" y="1199.5" type="line" smooth="no"/>
      <point x="859" y="1420" type="line" smooth="no"/>
      <point x="670.5" y="1472.5" type="line" smooth="no"/>
      <point x="682.5" y="1538" type="line" smooth="no"/>
      <point x="1001" y="1565" type="line" smooth="no"/>
      <point x="1019.5" y="1544.5" type="line" smooth="no"/>
      <point x="1019.5" y="274" type="line" smooth="yes"/>
      <point x="1019.5" y="112.5"/>
      <point x="1078.5" y="100"/>
      <point x="1141.5" y="86" type="curve" smooth="yes"/>
      <point x="1206.5" y="72" type="line" smooth="no"/>
      <point x="1195.5" y="-2" type="line" smooth="no"/>
      <point x="1146.5" y="-16.5"/>
      <point x="1113.5" y="-27"/>
      <point x="1046.5" y="-27" type="curve" smooth="yes"/>
      <point x="928" y="-27"/>
      <point x="875.5" y="51.5"/>
      <point x="875.5" y="153" type="curve" smooth="yes"/>
      <point x="875.5" y="161.5" type="line" smooth="no"/>
      <point x="863" y="161.5" type="line" smooth="no"/>
      <point x="793.5" y="66"/>
      <point x="677.5" y="-26.5"/>
      <point x="506.5" y="-26.5" type="curve" smooth="yes"/>
      <point x="287.5" y="-26.5"/>
      <point x="113.5" y="150"/>
    </contour>
    <contour>
      <point x="284" y="557.5" type="curve" smooth="yes"/>
      <point x="284" y="267.5"/>
      <point x="393" y="94.5"/>
      <point x="584.5" y="94.5" type="curve" smooth="yes"/>
      <point x="688" y="94.5"/>
      <point x="810" y="166.5"/>
      <point x="863" y="238.5" type="curve" smooth="no"/>
      <point x="863" y="845" type="line" smooth="no"/>
      <point x="794.5" y="945.5"/>
      <point x="679.5" y="999.5"/>
      <point x="579" y="999.5" type="curve" smooth="yes"/>
      <point x="401.5" y="999.5"/>
      <point x="284" y="831.5"/>
    </contour>
  </outline>
</glyph>
<glyph name="l" format="1">
  <advance width="667"/>
  <unicode hex="006c"/>
  <outline>
    <contour>
      <point x="72.5" y="0" type="line" smooth="no"/>
      <point x="85.5" y="68" type="line" smooth="no"/>
      <point x="274.5" y="107.5" type="line" smooth="no"/>
      <point x="274.5" y="1426" type="line" smooth="no"/>
      <point x="82.5" y="1477" type="line" smooth="no"/>
      <point x="89.5" y="1541" type="line" smooth="no"/>
      <point x="413.5" y="1567" type="line" smooth="no"/>
      <point x="434.5" y="1547" type="line" smooth="no"/>
      <point x="434.5" y="107.5" type="line" smooth="no"/>
      <point x="632.5" y="70" type="line" smooth="no"/>
      <point x="618" y="0" type="line" smooth="no"/>
    </contour>
  </outline>
</glyph>
<glyph name="m" format="1">
  <advance width="1964"/>
  <unicode hex="006d"/>
  <outline>
    <contour>
      <point x="100.5" y="0" type="line" smooth="no"/>
      <point x="111" y="66" type="line" smooth="no"/>
      <point x="299" y="105.5" type="line" smooth="no"/>
      <point x="299" y="929.5" type="line" smooth="no"/>
      <point x="104.5" y="978.5" type="line" smooth="no"/>
      <point x="112" y="1042" type="line" smooth="no"/>
      <point x="444" y="1080" type="line" smooth="no"/>
      <point x="459" y="1062" type="line" smooth="no"/>
      <point x="445.5" y="898.5" type="line" smooth="no"/>
      <point x="455" y="898.5" type="line" smooth="no"/>
      <point x="534" y="996"/>
      <point x="679" y="1096.5"/>
      <point x="834.5" y="1096.5" type="curve" smooth="yes"/>
      <point x="957.5" y="1096.5"/>
      <point x="1066" y="1031.5"/>
      <point x="1096.5" y="892.5" type="curve" smooth="no"/>
      <point x="1110.5" y="892.5" type="line" smooth="no"/>
      <point x="1187.5" y="990"/>
      <point x="1326.5" y="1091.5"/>
      <point x="1482" y="1091.5" type="curve" smooth="yes"/>
      <point x="1699" y="1091.5"/>
      <point x="1773" y="951"/>
      <point x="1773" y="737" type="curve" smooth="yes"/>
      <point x="1773" y="107.5" type="line" smooth="no"/>
      <point x="1947.5" y="74" type="line" smooth="no"/>
      <point x="1932" y="2" type="line" smooth="no"/>
      <point x="1442" y="2" type="line" smooth="no"/>
      <point x="1449" y="66" type="line" smooth="no"/>
      <point x="1610" y="105.5" type="line" smooth="no"/>
      <point x="1610" y="706.5" type="line" smooth="yes"/>
      <point x="1610" y="869.5"/>
      <point x="1531.5" y="962"/>
      <point x="1392.5" y="962" type="curve" smooth="yes"/>
      <point x="1268" y="962"/>
      <point x="1173" y="874.5"/>
      <point x="1116" y="814" type="curve" smooth="no"/>
      <point x="1116" y="105.5" type="line" smooth="no"/>
      <point x="1288" y="72" type="line" smooth="no"/>
      <point x="1277.5" y="0" type="line" smooth="no"/>
      <point x="786.5" y="0" type="line" smooth="no"/>
      <point x="797" y="66" type="line" smooth="no"/>
      <point x="961" y="105.5" type="line" smooth="no"/>
      <point x="961" y="706.5" type="line" smooth="yes"/>
      <point x="961" y="859.5"/>
      <point x="881" y="964"/>
      <point x="747.5" y="964" type="curve" smooth="yes"/>
      <point x="635.5" y="964"/>
      <point x="526.5" y="904"/>
      <point x="460.5" y="821.5" type="curve" smooth="no"/>
      <point x="460.5" y="105.5" type="line" smooth="no"/>
      <point x="636" y="72" type="line" smooth="no"/>
      <point x="624.5" y="0" type="line" smooth="no"/>
    </contour>
  </outline>
</glyph>
<glyph name="q" format="1">
  <advance width="1189"/>
  <unicode hex="0071"/>
  <outline>
    <contour>
      <point x="108.5" y="501.5" type="curve" smooth="yes"/>
      <point x="108.5" y="836.5"/>
      <point x="374" y="1096.5"/>
      <point x="632.5" y="1096.5" type="curve" smooth="yes"/>
      <point x="731" y="1096.5"/>
      <point x="820" y="1062.5"/>
      <point x="856.5" y="1043" type="curve" smooth="no"/>
      <point x="971.5" y="1083.5" type="line" smooth="no"/>
      <point x="1001" y="1082.5" type="line" smooth="no"/>
      <point x="1001" y="-345" type="line" smooth="no"/>
      <point x="1199" y="-377" type="line" smooth="no"/>
      <point x="1187.5" y="-452.5" type="line" smooth="no"/>
      <point x="640.5" y="-452.5" type="line" smooth="no"/>
      <point x="650" y="-379.5" type="line" smooth="no"/>
      <point x="836.5" y="-345" type="line" smooth="no"/>
      <point x="836.5" y="853" type="line" smooth="no"/>
      <point x="793" y="920"/>
      <point x="703.5" y="998.5"/>
      <point x="572.5" y="998.5" type="curve" smooth="yes"/>
      <point x="412" y="998.5"/>
      <point x="280" y="829"/>
      <point x="280" y="577.5" type="curve" smooth="yes"/>
      <point x="280" y="250.5"/>
      <point x="397.5" y="96"/>
      <point x="573.5" y="96" type="curve" smooth="yes"/>
      <point x="629" y="96"/>
      <point x="737" y="116.5"/>
      <point x="798.5" y="157" type="curve" smooth="no"/>
      <point x="803" y="88" type="line" smooth="no"/>
      <point x="725.5" y="14.5"/>
      <point x="599.5" y="-26.5"/>
      <point x="500" y="-26.5" type="curve" smooth="yes"/>
      <point x="282.5" y="-26.5"/>
      <point x="108.5" y="132"/>
    </contour>
  </outline>
</glyph>
<glyph name="u" format="1">
  <advance width="1250"/>
  <unicode hex="0075"/>
  <outline>
    <contour>
      <point x="66" y="986.5" type="line" smooth="no"/>
      <point x="76.5" y="1052.5" type="line" smooth="no"/>
      <point x="384" y="1078" type="line" smooth="no"/>
      <point x="404" y="1057" type="line" smooth="no"/>
      <point x="404" y="391.5" type="line" smooth="yes"/>
      <point x="404" y="189"/>
      <point x="484.5" y="106.5"/>
      <point x="615" y="106.5" type="curve" smooth="yes"/>
      <point x="726.5" y="106.5"/>
      <point x="814" y="169"/>
      <point x="870" y="231" type="curve" smooth="no"/>
      <point x="870" y="930.5" type="line" smooth="no"/>
      <point x="676" y="975" type="line" smooth="no"/>
      <point x="683.5" y="1048.5" type="line" smooth="no"/>
      <point x="1011" y="1078" type="line" smooth="no"/>
      <point x="1028.5" y="1057" type="line" smooth="no"/>
      <point x="1028.5" y="274.5" type="line" smooth="yes"/>
      <point x="1028.5" y="151.5"/>
      <point x="1057.5" y="104.5"/>
      <point x="1151.5" y="86" type="curve" smooth="yes"/>
      <point x="1217.5" y="72" type="line" smooth="no"/>
      <point x="1208.5" y="-1" type="line" smooth="no"/>
      <point x="1157.5" y="-15.5"/>
      <point x="1115" y="-25.5"/>
      <point x="1053" y="-25.5" type="curve" smooth="yes"/>
      <point x="941" y="-25.5"/>
      <point x="884.5" y="53"/>
      <point x="884.5" y="147.5" type="curve" smooth="yes"/>
      <point x="884.5" y="163" type="line" smooth="no"/>
      <point x="870" y="163" type="line" smooth="no"/>
      <point x="784.5" y="37"/>
      <point x="661.5" y="-29"/>
      <point x="527" y="-29" type="curve" smooth="yes"/>
      <point x="356" y="-29"/>
      <point x="246" y="74.5"/>
      <point x="246" y="339.5" type="curve" smooth="yes"/>
      <point x="246" y="934" type="line" smooth="no"/>
    </contour>
  </outline>
</glyph>
<glyph name="bar" format="1">
  <advance width="553"/>
  <unicode hex="007c"/>
  <outline>
    <contour>
      <point x="236" y="-452.5" type="line" smooth="no"/>
      <point x="236" y="1555" type="line" smooth="no"/>
      <point x="354" y="1540" type="line" smooth="no"/>
      <point x="354" y="-469" type="line" smooth="no"/>
    </contour>
  </outline>
</glyph>
<glyph name="sterling" format="1">
  <advance width="1348"/>
  <unicode hex="00a3"/>
  <outline>
    <contour>
      <point x="101.5" y="0" type="line" smooth="no"/>
      <point x="109.5" y="71" type="line" smooth="no"/>
      <point x="317.5" y="119" type="line" smooth="no"/>
      <point x="353.5" y="245.5"/>
      <point x="362" y="386"/>
      <point x="366" y="569" type="curve" smooth="no"/>
      <point x="367.5" y="692.5" type="line" smooth="no"/>
      <point x="147.5" y="680.5" type="line" smooth="no"/>
      <point x="161.5" y="778.5" type="line" smooth="no"/>
      <point x="371.5" y="791" type="line" smooth="no"/>
      <point x="375.5" y="970" type="line" smooth="no"/>
      <point x="385.5" y="1366"/>
      <point x="548.5" y="1543"/>
      <point x="828.5" y="1543" type="curve" smooth="yes"/>
      <point x="928" y="1543"/>
      <point x="1017.5" y="1535"/>
      <point x="1115" y="1494" type="curve" smooth="no"/>
      <point x="1077" y="1100.5" type="line" smooth="no"/>
      <point x="994" y="1112.5" type="line" smooth="no"/>
      <point x="955.5" y="1407.5" type="line" smooth="no"/>
      <point x="929" y="1421.5"/>
      <point x="854.5" y="1444.5"/>
      <point x="810" y="1444.5" type="curve" smooth="yes"/>
      <point x="612.5" y="1444.5"/>
      <point x="565.5" y="1344.5"/>
      <point x="561.5" y="866.5" type="curve" smooth="no"/>
      <point x="561.5" y="799" type="line" smooth="no"/>
      <point x="831.5" y="815.5" type="line" smooth="no"/>
      <point x="818.5" y="716.5" type="line" smooth="no"/>
      <point x="559" y="700.5" type="line" smooth="no"/>
      <point x="558.5" y="636" type="line" smooth="no"/>
      <point x="556.5" y="410"/>
      <point x="533" y="215.5"/>
      <point x="482" y="96.5" type="curve" smooth="no"/>
      <point x="1098" y="94.5" type="line" smooth="no"/>
      <point x="1234.5" y="414.5" type="line" smooth="no"/>
      <point x="1312.5" y="397.5" type="line" smooth="no"/>
      <point x="1270.5" y="0" type="line" smooth="no"/>
    </contour>
  </outline>
</glyph>
<glyph name="twosuperior" format="1">
  <advance width="345"/>
  <unicode hex="00b2"/>
  <outline>
    <contour>
      <point x="54.5" y="1286" type="line" smooth="no"/>
      <point x="161.5" y="1392" type="line" smooth="no"/>
      <point x="192" y="1421"/>
      <point x="210.5" y="1455"/>
      <point x="210.5" y="1491.5" type="curve" smooth="yes"/>
      <point x="210.5" y="1532.5"/>
      <point x="193.5" y="1565"/>
      <point x="157" y="1565" type="curve" smooth="yes"/>
      <point x="123" y="1565"/>
      <point x="117" y="1511.5"/>
      <point x="117" y="1475" type="curve" smooth="no"/>
      <point x="80.5" y="1479"/>
      <point x="64" y="1490"/>
      <point x="64" y="1520.5" type="curve" smooth="yes"/>
      <point x="64" y="1563.5"/>
      <point x="135" y="1606"/>
      <point x="181" y="1606" type="curve" smooth="yes"/>
      <point x="234" y="1606"/>
      <point x="277" y="1565"/>
      <point x="277" y="1508" type="curve" smooth="yes"/>
      <point x="277" y="1438.5"/>
      <point x="242.5" y="1408.5"/>
      <point x="169" y="1343" type="curve" smooth="no"/>
      <point x="119.5" y="1300.5" type="line" smooth="no"/>
      <point x="282.5" y="1300.5" type="line" smooth="no"/>
      <point x="275.5" y="1247.5" type="line" smooth="no"/>
      <point x="56" y="1247.5" type="line" smooth="no"/>
    </contour>
  </outline>
</glyph>
<glyph name="onehalf" format="1">
  <advance width="1245"/>
  <unicode hex="00bd"/>
  <outline>
    <contour>
      <point x="101" y="618.5" type="line" smooth="no"/>
      <point x="104.5" y="656" type="line" smooth="no"/>
      <point x="244" y="679" type="line" smooth="no"/>
      <point x="244" y="1128.5" type="line" smooth="no"/>
      <point x="111" y="1128.5" type="line" smooth="no"/>
      <point x="115.5" y="1166.5" type="line" smooth="no"/>
      <point x="316.5" y="1204" type="line" smooth="no"/>
      <point x="329" y="1204" type="line" smooth="no"/>
      <point x="329" y="675.5" type="line" smooth="no"/>
      <point x="464.5" y="660" type="line" smooth="no"/>
      <point x="458.5" y="618.5" type="line" smooth="no"/>
    </contour>
    <contour>
      <point x="162.5" y="-36.5" type="line" smooth="no"/>
      <point x="1013" y="1185" type="line" smooth="no"/>
      <point x="1112.5" y="1194.5" type="line" smooth="no"/>
      <point x="265.5" y="-26.5" type="line" smooth="no"/>
    </contour>
    <contour>
      <point x="746" y="50.5" type="line" smooth="no"/>
      <point x="866" y="151.5" type="line" smooth="no"/>
      <point x="946.5" y="221"/>
      <point x="1036.5" y="305.5"/>
      <point x="1036.5" y="405" type="curve" smooth="yes"/>
      <point x="1036.5" y="473"/>
      <point x="1017" y="529.5"/>
      <point x="936.5" y="529.5" type="curve" smooth="yes"/>
      <point x="867" y="529.5"/>
      <point x="828" y="460.5"/>
      <point x="806" y="404" type="curve" smooth="no"/>
      <point x="765" y="419" type="line" smooth="no"/>
      <point x="784" y="501.5"/>
      <point x="862.5" y="597"/>
      <point x="965.5" y="597" type="curve" smooth="yes"/>
      <point x="1072.5" y="597"/>
      <point x="1127" y="534.5"/>
      <point x="1127" y="427.5" type="curve" smooth="yes"/>
      <point x="1127" y="287"/>
      <point x="970.5" y="184.5"/>
      <point x="889" y="105.5" type="curve" smooth="no"/>
      <point x="842.5" y="69.5" type="line" smooth="no"/>
      <point x="1081" y="69.5" type="line" smooth="no"/>
      <point x="1127" y="154.5" type="line" smooth="no"/>
      <point x="1161.5" y="149" type="line" smooth="no"/>
      <point x="1134.5" y="0" type="line" smooth="no"/>
      <point x="750" y="0" type="line" smooth="no"/>
    </contour>
  </outline>
</glyph>
<glyph name="Aogonek" format="1">
  <advance width="1634"/>
  <unicode hex="0104"/>
  <outline>
    <contour>
      <point x="43.5" y="0" type="line" smooth="no"/>
      <point x="52.5" y="71" type="line" smooth="no"/>
      <point x="231.5" y="124" type="line" smooth="no"/>
      <point x="772" y="1537" type="line" smooth="no"/>
      <point x="898.5" y="1564.5" type="line" smooth="no"/>
      <point x="1394.5" y="117.5" type="line" smooth="no"/>
      <point x="1561" y="79" type="line" smooth="no"/>
      <point x="1551" y="0.5" type="line" smooth="no"/>
      <point x="1534.78" y="0.5" type="line" smooth="no"/>
      <point x="1460.8" y="-105.58"/>
      <point x="1450.5" y="-155.29"/>
      <point x="1450.5" y="-194" type="curve" smooth="yes"/>
      <point x="1450.5" y="-283"/>
      <point x="1502.5" y="-359"/>
      <point x="1614" y="-424.5" type="curve" smooth="no"/>
      <point x="1572" y="-477" type="line" smooth="no"/>
      <point x="1394" y="-458.5"/>
      <point x="1298.5" y="-363"/>
      <point x="1298.5" y="-257.5" type="curve" smooth="yes"/>
      <point x="1298.5" y="-192.769"/>
      <point x="1321.79" y="-124.095"/>
      <point x="1459.39" y="0.5" type="curve" smooth="no"/>
      <point x="980.5" y="0.5" type="line" smooth="no"/>
      <point x="993" y="71.5" type="line" smooth="no"/>
      <point x="1201.5" y="124.5" type="line" smooth="no"/>
      <point x="1048" y="561.5" type="line" smooth="no"/>
      <point x="524" y="561.5" type="line" smooth="no"/>
      <point x="362.5" y="117" type="line" smooth="no"/>
      <point x="591.5" y="78" type="line" smooth="no"/>
      <point x="578.5" y="0" type="line" smooth="no"/>
    </contour>
    <contour>
      <point x="559" y="658.5" type="line" smooth="no"/>
      <point x="1018.5" y="658.5" type="line" smooth="no"/>
      <point x="797" y="1307.5" type="line" smooth="no"/>
    </contour>
  </outline>
</glyph>
<glyph name="Dcroat" format="1">
  <advance width="1670"/>
  <unicode hex="0110"/>
  <outline>
    <contour>
      <point x="106.5" y="708" type="line" smooth="no"/>
      <point x="119.5" y="802" type="line" smooth="no"/>
      <point x="329.5" y="817" type="line" smooth="no"/>
      <point x="329.5" y="1393" type="line" smooth="no"/>
      <point x="117.5" y="1424.5" type="line" smooth="no"/>
      <point x="128" y="1494" type="line" smooth="no"/>
      <point x="371" y="1532"/>
      <point x="558" y="1554"/>
      <point x="737.5" y="1554" type="curve" smooth="yes"/>
      <point x="1397.5" y="1554"/>
      <point x="1605" y="1190"/>
      <point x="1605" y="810" type="curve" smooth="yes"/>
      <point x="1605" y="398"/>
      <point x="1308.5" y="0"/>
      <point x="687.5" y="0" type="curve" smooth="yes"/>
      <point x="106" y="0" type="line" smooth="no"/>
      <point x="119.5" y="71" type="line" smooth="no"/>
      <point x="329.5" y="124" type="line" smooth="no"/>
      <point x="329.5" y="724.5" type="line" smooth="no"/>
    </contour>
    <contour>
      <point x="510" y="97.5" type="line" smooth="no"/>
      <point x="751.5" y="97.5" type="line" smooth="yes"/>
      <point x="1173" y="97.5"/>
      <point x="1402" y="376"/>
      <point x="1402" y="738.5" type="curve" smooth="yes"/>
      <point x="1402" y="1152"/>
      <point x="1162" y="1457.5"/>
      <point x="692.5" y="1457.5" type="curve" smooth="yes"/>
      <point x="642" y="1457.5"/>
      <point x="560.5" y="1457"/>
      <point x="510" y="1451" type="curve" smooth="no"/>
      <point x="510" y="829" type="line" smooth="no"/>
      <point x="846" y="854" type="line" smooth="no"/>
      <point x="833.5" y="760.5" type="line" smooth="no"/>
      <point x="510" y="736.5" type="line" smooth="no"/>
    </contour>
  </outline>
</glyph>
<glyph name="Lslash" format="1">
  <advance width="1343"/>
  <unicode hex="0141"/>
  <outline>
    <component base="L"/>
    <contour>
      <point x="122" y="605.5" type="line" smooth="no"/>
      <point x="134.5" y="727.5" type="line" smooth="no"/>
      <point x="740" y="1080" type="line" smooth="no"/>
      <point x="727" y="962" type="line" smooth="no"/>
    </contour>
  </outline>
</glyph>
<glyph name="OE" format="1">
  <advance width="2072"/>
  <unicode hex="0152"/>
  <outline>
    <contour>
      <point x="79" y="764.5" type="curve" smooth="yes"/>
      <point x="79" y="1242.5"/>
      <point x="344" y="1571"/>
      <point x="811" y="1571" type="curve" smooth="yes"/>
      <point x="891.5" y="1571"/>
      <point x="969" y="1560.5"/>
      <point x="1034.5" y="1536" type="curve" smooth="no"/>
      <point x="1916" y="1535" type="line" smooth="no"/>
      <point x="1877.5" y="1140.5" type="line" smooth="no"/>
      <point x="1796.5" y="1152.5" type="line" smooth="no"/>
      <point x="1758.5" y="1447" type="line" smooth="no"/>
      <point x="1165.5" y="1447" type="line" smooth="no"/>
      <point x="1165.5" y="823.5" type="line" smooth="no"/>
      <point x="1527" y="823.5" type="line" smooth="no"/>
      <point x="1576" y="983.5" type="line" smooth="no"/>
      <point x="1666" y="996.5" type="line" smooth="no"/>
      <point x="1625" y="517" type="line" smooth="no"/>
      <point x="1542" y="503.5" type="line" smooth="no"/>
      <point x="1511" y="733" type="line" smooth="no"/>
      <point x="1165.5" y="733" type="line" smooth="no"/>
      <point x="1165.5" y="92.5" type="line" smooth="no"/>
      <point x="1791.5" y="92.5" type="line" smooth="no"/>
      <point x="1896.5" y="400" type="line" smooth="no"/>
      <point x="1973.5" y="386.5" type="line" smooth="no"/>
      <point x="1936" y="0" type="line" smooth="no"/>
      <point x="977" y="0" type="line" smooth="no"/>
      <point x="895.5" y="-19.5"/>
      <point x="810" y="-33"/>
      <point x="725.5" y="-33" type="curve" smooth="yes"/>
      <point x="321" y="-33"/>
      <point x="79" y="317.5"/>
    </contour>
    <contour>
      <point x="283" y="836" type="curve" smooth="yes"/>
      <point x="283" y="447.5"/>
      <point x="443.5" y="68"/>
      <point x="780.5" y="68" type="curve" smooth="yes"/>
      <point x="854" y="68"/>
      <point x="920" y="82.5"/>
      <point x="981" y="114.5" type="curve" smooth="no"/>
      <point x="981" y="1405" type="line" smooth="no"/>
      <point x="913.5" y="1453"/>
      <point x="837.5" y="1476.5"/>
      <point x="752" y="1476.5" type="curve" smooth="yes"/>
      <point x="437" y="1476.5"/>
      <point x="283" y="1203"/>
    </contour>
  </outline>
</glyph>
<glyph name="oe" format="1">
  <advance width="1747"/>
  <unicode hex="0153"/>
  <outline>
    <contour>
      <point x="86" y="515" type="curve" smooth="yes"/>
      <point x="86" y="890"/>
      <point x="321.5" y="1098"/>
      <point x="575" y="1098" type="curve" smooth="yes"/>
      <point x="733.5" y="1098"/>
      <point x="896.5" y="1014.5"/>
      <point x="960" y="864.5" type="curve" smooth="no"/>
      <point x="1030" y="983"/>
      <point x="1169.5" y="1093.5"/>
      <point x="1345" y="1093.5" type="curve" smooth="yes"/>
      <point x="1524.5" y="1093.5"/>
      <point x="1653.5" y="988.5"/>
      <point x="1653.5" y="728" type="curve" smooth="yes"/>
      <point x="1653.5" y="690"/>
      <point x="1642.5" y="595"/>
      <point x="1632" y="552" type="curve" smooth="no"/>
      <point x="1036" y="545" type="line" smooth="no"/>
      <point x="1036" y="308.5"/>
      <point x="1148.5" y="90.5"/>
      <point x="1388.5" y="90.5" type="curve" smooth="yes"/>
      <point x="1490.5" y="90.5"/>
      <point x="1568" y="118.5"/>
      <point x="1661" y="182" type="curve" smooth="no"/>
      <point x="1687" y="128.5" type="line" smooth="no"/>
      <point x="1603" y="31.5"/>
      <point x="1467" y="-36.5"/>
      <point x="1303.5" y="-36.5" type="curve" smooth="yes"/>
      <point x="1133" y="-36.5"/>
      <point x="1009.5" y="60"/>
      <point x="938" y="198.5" type="curve" smooth="no"/>
      <point x="840.5" y="37.5"/>
      <point x="704" y="-33.5"/>
      <point x="546" y="-33.5" type="curve" smooth="yes"/>
      <point x="265.5" y="-33.5"/>
      <point x="86" y="193.5"/>
    </contour>
    <contour>
      <point x="262.5" y="603.5" type="curve" smooth="yes"/>
      <point x="262.5" y="330.5"/>
      <point x="382.5" y="70"/>
      <point x="599" y="70" type="curve" smooth="yes"/>
      <point x="755" y="70"/>
      <point x="861.5" y="261.5"/>
      <point x="861.5" y="476.5" type="curve" smooth="yes"/>
      <point x="861.5" y="724.5"/>
      <point x="755" y="996"/>
      <point x="536" y="996" type="curve" smooth="yes"/>
      <point x="350" y="996"/>
      <point x="262.5" y="820"/>
    </contour>
    <contour>
      <point x="1037" y="623" type="curve" smooth="no"/>
      <point x="1471" y="650" type="line" smooth="no"/>
      <point x="1477" y="672.5"/>
      <point x="1480" y="749"/>
      <point x="1480" y="768.5" type="curve" smooth="yes"/>
      <point x="1480" y="915"/>
      <point x="1403" y="993.5"/>
      <point x="1284.5" y="993.5" type="curve" smooth="yes"/>
      <point x="1170.5" y="993.5"/>
      <point x="1043" y="872"/>
    </contour>
  </outline>
</glyph>
<glyph name="tcaron" format="1">
  <advance width="1135"/>
  <unicode hex="0165"/>
  <outline>
    <contour>
      <point x="81.5" y="951" type="line" smooth="no"/>
      <point x="81.5" y="1001" type="line" smooth="no"/>
      <point x="205" y="1056"/>
      <point x="283.5" y="1164.5"/>
      <point x="345.5" y="1317.5" type="curve" smooth="no"/>
      <point x="404" y="1317.5" type="line" smooth="no"/>
      <point x="404" y="1036" type="line" smooth="no"/>
      <point x="752.5" y="1036" type="line" smooth="no"/>
      <point x="742.5" y="948" type="line" smooth="no"/>
      <point x="402" y="948" type="line" smooth="no"/>
      <point x="398.5" y="391.5" type="line" smooth="no"/>
      <point x="398.5" y="383" type="line" smooth="yes"/>
      <point x="398.5" y="176"/>
      <point x="452.5" y="120.5"/>
      <point x="569" y="120.5" type="curve" smooth="yes"/>
      <point x="660.5" y="120.5"/>
      <point x="760" y="201"/>
      <point x="760" y="201" type="curve" smooth="no"/>
      <point x="783" y="147" type="line" smooth="no"/>
      <point x="709.5" y="41.5"/>
      <point x="593" y="-29"/>
      <point x="469" y="-29" type="curve" smooth="yes"/>
      <point x="317.5" y="-29"/>
      <point x="233.5" y="65.5"/>
      <point x="233.5" y="310" type="curve" smooth="yes"/>
      <point x="233.5" y="348.5" type="line" smooth="no"/>
      <point x="237.5" y="951" type="line" smooth="no"/>
    </contour>
    <contour>
      <point x="792" y="987" type="line" smooth="no"/>
      <point x="961" y="1043"/>
      <point x="1014" y="1131.5"/>
      <point x="1014" y="1221" type="curve" smooth="yes"/>
      <point x="1014" y="1309"/>
      <point x="954.5" y="1375.5"/>
      <point x="875" y="1375.5" type="curve" smooth="yes"/>
      <point x="863.5" y="1375.5"/>
      <point x="850.5" y="1375"/>
      <point x="839" y="1372" type="curve" smooth="no"/>
      <point x="832.5" y="1390"/>
      <point x="829" y="1404"/>
      <point x="829" y="1422.5" type="curve" smooth="yes"/>
      <point x="829" y="1506"/>
      <point x="896" y="1552.5"/>
      <point x="962" y="1552.5" type="curve" smooth="yes"/>
      <point x="1052" y="1552.5"/>
      <point x="1159.5" y="1474.5"/>
      <point x="1159.5" y="1296" type="curve" smooth="yes"/>
      <point x="1159.5" y="1180.5"/>
      <point x="1105.5" y="1001"/>
      <point x="814" y="917" type="curve" smooth="no"/>
    </contour>
  </outline>
</glyph>
<glyph name="ring" format="1">
  <advance width="639"/>
  <unicode hex="02da"/>
  <outline>
    <contour>
      <point x="128" y="1885.5" type="curve" smooth="yes"/>
      <point x="128" y="1999"/>
      <point x="219" y="2097"/>
      <point x="334.5" y="2097" type="curve" smooth="yes"/>
      <point x="453" y="2097"/>
      <point x="528" y="2012"/>
      <point x="528" y="1896.5" type="curve" smooth="yes"/>
      <point x="528" y="1785"/>
      <point x="445" y="1680.5"/>
      <point x="319" y="1680.5" type="curve" smooth="yes"/>
      <point x="205.5" y="1680.5"/>
      <point x="128" y="1759.5"/>
    </contour>
    <contour>
      <point x="211.5" y="1899.5" type="curve" smooth="yes"/>
      <point x="211.5" y="1822.5"/>
      <point x="250.5" y="1736"/>
      <point x="332.5" y="1736" type="curve" smooth="yes"/>
      <point x="402" y="1736"/>
      <point x="443.5" y="1788"/>
      <point x="443.5" y="1880" type="curve" smooth="yes"/>
      <point x="443.5" y="1959.5"/>
      <point x="400" y="2042.5"/>
      <point x="320.5" y="2042.5" type="curve" smooth="yes"/>
      <point x="244.5" y="2042.5"/>
      <point x="211.5" y="1971"/>
    </contour>
  </outline>
</glyph>
<glyph name="dotbelowcomb" format="1">
  <advance width="279"/>
  <unicode hex="0323"/>
  <outline>
    <contour>
      <point x="26.5" y="-338.5" type="curve" smooth="yes"/>
      <point x="26.5" y="-263.5"/>
      <point x="67" y="-213.5"/>
      <point x="129.5" y="-213.5" type="curve" smooth="yes"/>
      <point x="192" y="-213.5"/>
      <point x="236.5" y="-262.5"/>
      <point x="236.5" y="-338.5" type="curve" smooth="yes"/>
      <point x="236.5" y="-417"/>
      <point x="196" y="-469"/>
      <point x="130" y="-469" type="curve" smooth="yes"/>
      <point x="65" y="-469"/>
      <point x="26.5" y="-414.5"/>
    </contour>
  </outline>
</glyph>
<glyph name="Euro" format="1">
  <advance width="1378"/>
  <unicode hex="20ac"/>
  <outline>
    <contour>
      <point x="-31.5" y="608" type="line" smooth="no"/>
      <point x="-24.5" y="710" type="line" smooth="no"/>
      <point x="992.5" y="710" type="line" smooth="no"/>
      <point x="971.5" y="608" type="line" smooth="no"/>
    </contour>
    <contour>
      <point x="-21.5" y="829" type="line" smooth="no"/>
      <point x="-14.5" y="930.5" type="line" smooth="no"/>
      <point x="1051.5" y="930.5" type="line" smooth="no"/>
      <point x="1030.5" y="829" type="line" smooth="no"/>
    </contour>
    <contour>
      <point x="173.5" y="752.5" type="curve" smooth="yes"/>
      <point x="173.5" y="1158.5"/>
      <point x="406.5" y="1567"/>
      <point x="885" y="1567" type="curve" smooth="yes"/>
      <point x="1048.5" y="1567"/>
      <point x="1158" y="1534"/>
      <point x="1276.5" y="1444" type="curve" smooth="no"/>
      <point x="1237.5" y="1031" type="line" smooth="no"/>
      <point x="1156.5" y="1044" type="line" smooth="no"/>
      <point x="1112" y="1339.5" type="line" smooth="no"/>
      <point x="1059" y="1417.5"/>
      <point x="996.5" y="1468.5"/>
      <point x="847.5" y="1468.5" type="curve" smooth="yes"/>
      <point x="540.5" y="1468.5"/>
      <point x="380" y="1199.5"/>
      <point x="380" y="791" type="curve" smooth="no"/>
      <point x="380" y="354.5"/>
      <point x="568.5" y="78"/>
      <point x="881.5" y="78" type="curve" smooth="yes"/>
      <point x="959" y="78"/>
      <point x="1061.5" y="116.5"/>
      <point x="1131.5" y="213.5" type="curve" smooth="no"/>
      <point x="1176.5" y="514" type="line" smooth="no"/>
      <point x="1258.5" y="525.5" type="line" smooth="no"/>
      <point x="1297" y="132" type="line" smooth="no"/>
      <point x="1147" y="19.5"/>
      <point x="1021.5" y="-30.5"/>
      <point x="819.5" y="-30.5" type="curve" smooth="yes"/>
      <point x="434.5" y="-30.5"/>
      <point x="173.5" y="276.5"/>
    </contour>
  </outline>
</glyph>
<glyph name="five.osf" format="1">
  <advance width="1049"/>
  <outline>
    <contour>
      <point x="-67" y="-181.5" type="curve" smooth="yes"/>
      <point x="-67" y="-107"/>
      <point x="-9.5" y="-41"/>
      <point x="57" y="-32" type="curve" smooth="no"/>
      <point x="97.5" y="-144.5"/>
      <point x="185" y="-272.5"/>
      <point x="332" y="-272.5" type="curve" smooth="yes"/>
      <point x="491.5" y="-272.5"/>
      <point x="648" y="-163"/>
      <point x="648" y="89" type="curve" smooth="yes"/>
      <point x="648" y="334"/>
      <point x="457.5" y="479.5"/>
      <point x="121" y="510" type="curve" smooth="no"/>
      <point x="237.5" y="1139" type="line" smooth="no"/>
      <point x="787" y="1186" type="line" smooth="no"/>
      <point x="761" y="1013" type="line" smooth="no"/>
      <point x="308.5" y="982" type="line" smooth="no"/>
      <point x="256" y="662.5" type="line" smooth="no"/>
      <point x="608.5" y="617.5"/>
      <point x="833.5" y="445.5"/>
      <point x="833.5" y="163.5" type="curve" smooth="yes"/>
      <point x="833.5" y="-112.5"/>
      <point x="599.5" y="-366.5"/>
      <point x="274.5" y="-366.5" type="curve" smooth="yes"/>
      <point x="78.5" y="-366.5"/>
      <point x="-67" y="-287"/>
    </contour>
  </outline>
</glyph>
<glyph name="seven.osf" format="1">
  <advance width="893"/>
  <outline>
    <contour>
      <point x="34.5" y="749" type="line" smooth="no"/>
      <point x="74.5" y="1151.5" type="line" smooth="no"/>
      <point x="868" y="1151.5" type="line" smooth="no"/>
      <point x="876" y="1059.5" type="line" smooth="no"/>
      <point x="603.5" y="569"/>
      <point x="394.5" y="194"/>
      <point x="352.5" y="-368.5" type="curve" smooth="no"/>
      <point x="342" y="-369"/>
      <point x="324.5" y="-375"/>
      <point x="315" y="-375" type="curve" smooth="yes"/>
      <point x="210.745" y="-375"/>
      <point x="167.596" y="-314.71"/>
      <point x="167.596" y="-228.022" type="curve" smooth="yes"/>
      <point x="167.596" y="38.5"/>
      <point x="556.5" y="697.5"/>
      <point x="732.5" y="994" type="curve" smooth="no"/>
      <point x="176.5" y="994" type="line" smooth="no"/>
      <point x="98.5" y="736.5" type="line" smooth="no"/>
    </contour>
  </outline>
</glyph>
